# xmcd CD database file
#
# Track frame offsets:
#	150
#	10347
#	27007
#	45741
#	63608
#	78863
#	92319
#	108204
#	124454
#	139539
#	160372
#	180226
#	198407
#	219124
#	238599
#	255959
#	273552
#	288540
#	310279
#	333822
#
# Disc length: 4700 seconds
#
# Revision: 0
# Processed by: cddbd v1.5.2PL0 Copyright (c) Steve Scherf et al.
# Submitted via: CDex 1.51
#
DISCID=09125a14
DTITLE=varios - The Very Best of Smooth Jazz CD 02
DYEAR=2006
DGENRE=Jazz
TTITLE0=LOUIS ARMSTRONG - WHAT A WONDERFUL WORLD
TTITLE1=ROY AYERS - EVERYBODY LOVES THE SUNSHINE
TTITLE2=AL JARREAN - JUST TO BE LOVED
TTITLE3=CHAKA KHAN - SWEET THING
TTITLE4=CURTIS MAYFIELD - MOVE ON UP
TTITLE5=STAN GETZ - CORCOVADO
TTITLE6=ELLA FITZGERALD - EV´RY TIME WE SAY GOODBYE
TTITLE7=WILL DOWNING - A LOVE SUPREME
TTITLE8=JEFF COLUB - DROP LOP
TTITLE9=GERALD ALBRIGHT - SO AMAZING
TTITLE10=THE RIPPINGTONS - TOURIST IN PARADISE
TTITLE11=EARL KLUGH and BOB JAMES - KARI
TTITLE12=FREEDIE JACKSON - ROCK ME TONIGHT
TTITLE13=MICA PARIS - MY ONE TEMPTATION
TTITLE14=MARTIN TAYLOR - MIDNIGHT AT THE OASIS
TTITLE15=DENNIS TAYLOR - SMILE
TTITLE16=BRENDA RUSSELL - SO GOOD, SO RIGHT
TTITLE17=CANDY DULFER - FOR THE LOVE OF YOU
TTITLE18=RICK BRAUN - SOUL ON SOUL
TTITLE19=TALE 6 - BIGGEST PART OF ME
EXTD=YEAR: 2006
EXTT0=
EXTT1=
EXTT2=
EXTT3=
EXTT4=
EXTT5=
EXTT6=
EXTT7=
EXTT8=
EXTT9=
EXTT10=
EXTT11=
EXTT12=
EXTT13=
EXTT14=
EXTT15=
EXTT16=
EXTT17=
EXTT18=
EXTT19=
PLAYORDER=
